<?xml version="1.0" encoding="UTF-8"?>
<svg width="18px" height="18px" viewBox="0 0 18 18" version="1.1" xmlns="http://www.w3.org/2000/svg" xmlns:xlink="http://www.w3.org/1999/xlink">
    <!-- Generator: Sketch 46 (44423) - http://www.bohemiancoding.com/sketch -->
    <title>Combined Shape</title>
    <desc>Created with Sketch.</desc>
    <defs></defs>
    <g id="Exports" stroke="none" stroke-width="1" fill="none" fill-rule="evenodd" opacity="0.8">
        <g id="Artboard-Copy" transform="translate(-85.000000, -84.000000)" fill-rule="nonzero" fill="#A5A1A0">
            <g id="Group" transform="translate(85.000000, 84.000000)">
                <path d="M4.10541195,14.6828614 C4.21762711,14.1352334 4.38190562,13.7240572 4.59824747,13.449333 C5.05242326,12.8725926 7.22633322,12.4784143 7.48807438,12.0318186 C7.55272491,11.9215087 7.60539884,11.7865767 7.64609618,11.6270225 C6.74916103,10.9283468 6.14211732,9.5855532 6.14211732,8.04376687 C6.14211732,5.78197283 7.44852189,4.69998169 9.06005359,4.69998169 C10.6715853,4.69998169 11.9779899,5.78197283 11.9779899,8.04376687 C11.9779899,9.57425688 11.3798089,10.9086594 10.4936791,11.6115618 C10.5348899,11.7778777 10.5888595,11.9179633 10.6555879,12.0318186 C10.917329,12.4784143 13.091239,12.8725926 13.5454148,13.449333 C13.7475092,13.7059649 13.9041718,14.081668 14.0154027,14.5764424 C15.5408328,13.2035899 16.5,11.2138077 16.5,9 C16.5,4.85786438 13.1421356,1.5 9,1.5 C4.85786438,1.5 1.5,4.85786438 1.5,9 C1.5,11.271694 2.50998327,13.3074937 4.10541195,14.6828614 L4.10541195,14.6828614 Z M9,18 C4.02943725,18 0,13.9705627 0,9 C0,4.02943725 4.02943725,0 9,0 C13.9705627,0 18,4.02943725 18,9 C18,13.9705627 13.9705627,18 9,18 Z" id="Combined-Shape"></path>
            </g>
        </g>
    </g>
</svg>